<svg xmlns="http://www.w3.org/2000/svg" width="250" height="250" fill="none" viewBox="0 0 250 250">
  <path d="m241.9 157c-1.19-12.6-6.4-23.72-16.59-34.02-1.45-1.47-2.96-2.85-4.51-4.16l1.91-2.17c2.63-3.05 1.1-7.91-3.66-7.55l-1.67 0.35c-2.77-9.38-7.08-17.16-11.95-23.62 1.89-3.93 2.75-8.24 2.34-12.67-1.45-15.82-13.76-27.91-27.37-27.91-9.63 0-16.68 4.78-21 12.76-7.72-0.74-14.63-0.37-20.8 0.48-9.77-12.43-21.62-21.06-38.7-21.06-27.14 0-49.2 22.41-50.1 50.41-0.12 3.89 0.18 7.35 0.8 10.43l-1.67 0.18c-2.95 0.34-3.48 4.35-2.2 7.28l-0.79 2.59c-2.49-0.75-5.1-1.14-7.79-0.97-13.35 0.85-27.05 14.65-28.1 29.39-0.89 12.84 8.78 25.52 22.83 25.06 14.52-0.5 26.42-13.06 27.23-27.57 0.36-5.61-1.49-10.93-4.86-15.1l3.45-4.8c6.92 8.77 15.61 14.41 24.22 17.01l-2.47 4.97c-12.47 1.34-22.75 13.32-23.57 27.72-0.9 13.71 10.59 25.47 24.2 25.47 1.9 0 3.75-0.23 5.55-0.65 6.73 14.04 17.07 22.18 34.8 22.17 15.03-0.01 32.03-4.03 46.82-8.29 7.35 3.61 14.95 5.28 23.23 4.85 27.44-1.42 52.97-22.53 50.42-50.58zm-96.82-87.22c3.44-0.38 7.09-0.61 10.96-0.47 0.67 13.5 11.73 24.74 26.8 25.42 5.56 0.27 10.54-1.43 14.66-4.42 4.67 6.28 8.76 13.73 11.5 22.62l-2-1.07c-14.05-6.42-28.85-6.71-42.79-0.4-2.23-3.28-5.93-5.38-9.74-6.38l-8.37-2.39c2.01-6.65 2.51-14.51-1.02-32.91z" fill="#0a2e14"/>
  <path d="m237.9 157.4c-1.12-11.64-5.8-22.29-16.61-33.2-2.66-2.69-5.47-5.13-8.4-7.27l5.55-2.94c2.48-1.27 2.48-5.22-0.86-4.23l-3.44 1.65c-3.18-12.19-8.42-21.48-14.19-28.48 2.55-4.29 3.77-9.34 2.77-14.57-2.66-13.49-13.53-21-23.87-20.29-8.69 0.64-14.22 5.69-17.18 12.24-8.85-1.38-17.04-0.82-24.5 0.46-9.25-12.93-20.99-19.81-36.33-19.81-26.06 0-46.61 20.98-47.51 47.25-0.2 5.5 0.5 10.25 1.82 14.45l-5.07-0.71c-2.06-0.28-2.25 2.11-1.13 2.82l3.19 1.38-7.31 7.66c-2.91-1.24-6.14-1.81-9.53-1.31-11.49 1.8-22.03 13.96-22.93 25.46-1.05 11.11 7.65 21 18.99 20.36 12.77-0.78 23.74-12.08 24.74-24.65 0.53-6.68-2.36-12.61-7.24-16.43l7.19-9.13 1.11 1.87c0.9 1.52 2.8 0.67 2.86-0.85l0.26-2.98c8.43 13.85 22.59 23.13 39.44 23.13 6.12 0 11.97-1.37 17.31-3.91l-6.96 12.8-5.07 9.61 4.17 1.49c0.26 8.49 0.65 20.92 16.99 27.94 6.47 2.54 12.68 3.11 18.89 3.75 3.54 6 7.24 10.82 13.45 15.81-11.16 3.42-22.36 5.01-36.68 5.01-15.02 0-23.71-6.82-27.93-17.66 7.73-4.89 13.02-13.93 12.26-23.06-0.83-9.25-7.08-17.63-16.22-20.61l1.85-4.36 1.55 2.98c0.84 1.8 3.02 0.95 2.76-0.9l-1.96-9.39-10.13 8.31 0.26 2.78c-12.17-0.81-22.66 10.24-24.04 23.88-1.38 12.36 9.21 23.14 21.98 22.36 2.06-0.14 4.07-0.55 6.02-1.19 5.72 13.92 14.86 22.48 32.91 22.48 14.8 0 31.43-4.07 47.51-8.92 7.52 3.88 15.76 5.82 24.65 5.11 24.33-2.1 46.71-21.1 44.61-46.19zm-95.97-89.57c6-0.92 12.27-1.3 18.54-0.55-0.68 11.6 8.72 23.96 22.77 23.96 6.21 0 11.03-2.38 14.68-5.78 6 7.23 11.24 16.21 14.36 27.81l-2.06-1.1c-16.14-8.38-32.48-8.18-47.28 0.61-2.11-3.82-5.97-5.79-10.18-7.1l-9.14-3.12c5.02-11.8 3.28-23.75-1.69-34.73z" fill="#05070d" stroke="#10ff50" stroke-miterlimit="10" stroke-width="3.083"/>
  <!-- Large left eye -->
  <path d="m101.5 125.8c23.25 0 38.36-19.95 37.45-39.61-1.15-23.46-18.25-39.36-37.71-39.36-23.1 0-41.24 18.22-41.63 41.24-0.39 20.71 17.61 37.73 41.89 37.73z" fill="#05070d" stroke="#10ff50" stroke-miterlimit="10" stroke-width="4.111"/>
  <!-- Small top-right eye -->
  <path d="m182.8 87.71c10.44 0 17.17-8.95 15.86-18.08-1.58-10.32-10.27-16.61-18.4-15.92-9.5 0.85-15.17 9.04-14.65 17.95 0.58 9.25 8.25 16.05 17.19 16.05z" fill="#10ff50" stroke="#10ff50" stroke-miterlimit="10" stroke-width="3.083"/>
  <!-- (number removed from top-right eye) -->
  <!-- Small bottom-left eye -->
  <path d="m34.17 153.2c10.44-0.92 18.24-10.49 18.04-20.95-0.26-8.53-8.29-15.9-17.79-13.96-8.43 1.8-17.17 10.78-17.17 19.06 0 9.07 7.67 16.66 16.92 15.85z" fill="#10ff50" stroke="#05070d" stroke-miterlimit="10" stroke-width="3.083"/>
  <!-- (number removed from bottom-left eye) -->
  <!-- Small bottom-center eye -->
  <path d="m83.73 180.2c10.44-0.56 17.75-11.38 17.36-19.46-0.68-10.02-9.24-18.69-19.45-17.49-10 1.21-16.73 10.71-16.73 20.46 0 9.51 9.01 17.06 18.82 16.49z" fill="#10ff50" stroke="#05070d" stroke-miterlimit="10" stroke-width="3.083"/>
  <!-- (numbers removed from bottom-center eye) -->
  <!-- Large right eye -->
  <path d="m191.2 200c22.69-1.08 42.21-17.85 42.21-36.31 0-21.94-21.72-50.04-49.69-50.04-18.94 0-33.61 11.53-36.8 34.35-3.74 26.2 14.84 51.86 44.28 52z" fill="#05070d" stroke="#10ff50" stroke-miterlimit="10" stroke-width="3.083"/>
  <!-- Pupil in right eye -->
  <path d="m211.7 163.6c-6.47 3.35-9.65 12.71-6.41 16.14 3.61 3.95 9.75 0.35 11.65-3.99 1.9-4.48 3.75-5.57 1.83-9.52-1.51-2.98-4.94-3.57-7.07-2.63z" fill="#10ff50" stroke="#05070d" stroke-miterlimit="10" stroke-width="3.083"/>
  <!-- (spiral removed from right eye pupil) -->
  <!-- Body/arm shape -->
  <path d="m146.2 177.6c-13.02-0.85-27.2-4.44-32.38-11.88-3.18-4.62-3.38-12.76-3.7-18.04l-3.18-0.92 7.21-17.44 10.6 10.74c0.68 3.13-1.53 6.63-3.14 8.11 2.42 0 5.14-6.95 3.82-11.21l-2.72-13.28 9.24-12.5 5.79-7.49 2.79-0.63 18 5.69-8.43 12.43-1.38 5.71 3.19 0.49c-9.7 11.48-11.67 35.33-5.71 45.78l2.83 5.41 2.48 4.54 6.34 8.57 9.18 5.71-6.03 1.7-9.75-3.1-5.05-8.98v-9.41z" fill="#10ff50" stroke="#05070d" stroke-miterlimit="10" stroke-width="1.028"/>
  <!-- Beak triangle -->
  <path d="m124.3 92.99 7.86 20.37c0.53 1.38-0.45 1.87-1.96 1.59l-18.47-2.83c-1.99-0.35-2.84-1.84-1.6-3.46l11.81-15.81c0.78-1.1 1.9-1.03 2.36 0.14z" fill="#10ff50" stroke="#05070d" stroke-miterlimit="10" stroke-width="2.056"/>
  <!-- Wing shape -->
  <path d="m154.2 127.7 18.53 2.25c2.52 0.35 2.65 2.8 1.37 4.84l-9.44 13.42c-1.21 1.8-2.83 1.52-3.8-0.63l-8.01-17.63c-0.69-1.52 0-2.46 1.35-2.25z" fill="#10ff50" stroke="#05070d" stroke-miterlimit="10" stroke-width="3.083"/>
  <!-- Hatching lines -->
  <path d="m130.1 120.7 14.13-16.23" stroke="#05070d" stroke-linecap="round" stroke-miterlimit="10" stroke-width="1.028"/>
  <path d="m133.9 122.6 14.12-16.23" stroke="#05070d" stroke-linecap="round" stroke-miterlimit="10" stroke-width="1.028"/>
  <path d="m137.4 123.9 13.48-16.8" stroke="#05070d" stroke-linecap="round" stroke-miterlimit="10" stroke-width="1.028"/>
  <path d="m140.9 125 14.12-16.88" stroke="#05070d" stroke-linecap="round" stroke-miterlimit="10" stroke-width="1.028"/>
  <path d="m145 126.4 13.48-16.09" stroke="#05070d" stroke-linecap="round" stroke-miterlimit="10" stroke-width="1.028"/>
  <!-- (number removed from bottom of body) -->
</svg>
